<svg version="1.1" id="Layer_1" xmlns="http://www.w3.org/2000/svg" xmlns:xlink="http://www.w3.org/1999/xlink" x="0px" y="0px"
	 width="100%" viewBox="0 0 212 188" enable-background="new 0 0 212 188" xml:space="preserve">
<path fill="#FFFFFF" opacity="1.000000" stroke="none" 
	d="
M65.893532,1.384261 
	C113.759300,1.000000 161.518692,1.037355 209.277679,0.915722 
	C212.452438,0.907637 213.083939,1.700530 213.076126,4.766474 
	C212.964569,48.531654 213.000000,92.297218 213.000000,136.531342 
	C210.870407,137.267044 210.145630,135.510880 209.276474,134.211273 
	C200.943207,121.750862 192.789749,109.172844 184.846619,96.459305 
	C183.004089,93.510216 182.654770,90.250198 182.660370,86.860672 
	C182.687057,70.702797 182.692322,54.544804 182.664124,38.386909 
	C182.652451,31.700920 182.286087,31.348194 175.582947,31.333754 
	C164.922089,31.310785 154.261017,31.294735 143.600311,31.341391 
	C138.193344,31.365051 137.810028,31.932884 140.834259,36.591293 
	C151.807526,53.494164 162.607666,70.512924 173.857239,87.231445 
	C177.638596,92.851105 179.602066,98.530418 179.435638,105.392761 
	C179.080322,120.042908 179.369843,134.707825 179.295273,149.366211 
	C179.278076,152.747330 180.060501,156.668167 175.367462,157.997345 
	C170.512939,159.372269 166.513794,158.034164 163.647446,153.802536 
	C153.278275,138.494415 143.516037,122.789658 133.399094,107.315689 
	C117.723763,83.340141 102.468468,59.092075 86.864540,35.068165 
	C79.711021,24.054564 72.349648,13.160886 65.893532,1.384261 
z"/>
<path fill="#FFFFFF" opacity="1.000000" stroke="none" 
	d="
M146.141815,188.625336 
	C98.907402,189.000000 51.814697,188.962158 4.722414,189.084290 
	C1.548119,189.092529 0.915821,188.300095 0.923803,185.233780 
	C1.035989,142.135178 1.000000,99.036201 1.000000,55.468658 
	C3.358093,54.801647 4.024393,56.785313 4.951749,58.240849 
	C12.559650,70.181862 20.523283,81.889923 28.206135,93.782227 
	C30.386507,97.157234 31.395126,100.573944 31.373001,104.560814 
	C31.279633,121.385460 31.310495,138.211029 31.344646,155.036163 
	C31.357183,161.212860 31.778111,161.635483 37.797466,161.656006 
	C48.625446,161.692947 59.453838,161.699921 70.281517,161.632629 
	C72.008720,161.621887 74.332176,162.457367 75.249886,160.416794 
	C75.986916,158.777985 74.275772,157.376801 73.391907,156.017548 
	C61.860558,138.284103 50.287846,120.577820 38.850216,102.783142 
	C36.580933,99.252586 35.606133,95.639580 35.630203,91.496666 
	C35.722137,75.671547 35.608391,59.845112 35.720398,44.020210 
	C35.741230,41.076962 34.579357,37.377686 38.852097,36.006351 
	C43.626701,34.473942 48.798130,35.959930 51.265766,39.823372 
	C55.212116,46.001957 59.404736,52.016079 63.353218,58.191132 
	C82.913513,88.781616 102.765465,119.183899 122.403450,149.724121 
	C129.700317,161.071915 137.182755,172.299332 144.378189,183.712341 
	C145.264450,185.118088 146.263947,186.479614 146.141815,188.625336 
z"/>
<path fill="#FFFFFF" opacity="1.000000" stroke="none" 
	d="
M1.370301,54.119652 
	C1.000000,37.255898 1.051997,20.511442 0.938453,3.768109 
	C0.923145,1.510734 1.261379,0.865470 3.704952,0.921280 
	C12.486881,1.121855 21.276175,1.000000 30.531342,1.000000 
	C31.201906,5.659723 33.703152,7.023466 38.181911,6.777796 
	C44.492161,6.431663 50.840519,6.831913 57.164028,6.642727 
	C61.412361,6.515625 64.367409,7.980095 66.722336,11.621884 
	C82.818878,36.514500 98.915031,61.407532 115.004128,86.304985 
	C128.562149,107.285675 142.099197,128.279861 155.713287,149.224258 
	C156.167130,149.922485 156.646347,150.604202 157.099777,151.302719 
	C164.640671,162.919601 160.914093,161.635391 176.977875,161.675507 
	C182.401627,161.689056 182.660614,161.421127 182.676651,156.067566 
	C182.716080,142.908936 182.620041,129.749481 182.742111,116.591866 
	C182.769852,113.601044 181.372284,109.170845 185.076279,108.217148 
	C188.616837,107.305527 189.761841,111.804634 191.322327,114.326836 
	C194.916351,120.135841 199.045181,125.605766 202.340576,131.592484 
	C204.600571,135.698181 207.337006,139.032852 212.695557,139.757843 
	C213.000000,155.412537 212.942627,170.825516 213.062881,186.237122 
	C213.080582,188.506180 212.722626,189.135773 210.291565,189.077805 
	C201.844330,188.876358 193.389359,189.000000 184.468658,189.000000 
	C182.636673,185.161926 179.972443,184.011002 175.934906,184.218246 
	C169.289490,184.559387 162.607788,184.147430 155.952362,184.367126 
	C151.629807,184.509781 148.855270,182.814896 146.506363,179.230591 
	C130.165649,154.295746 114.121185,129.169647 97.885529,104.167259 
	C83.463753,81.958183 68.981712,59.786633 54.812740,37.416267 
	C52.005695,32.984428 48.840599,31.026583 43.483597,31.201202 
	C30.016720,31.640181 31.368322,29.886028 31.320019,43.239178 
	C31.279041,54.566349 31.312975,65.893791 31.310068,77.221107 
	C31.309683,78.720024 31.373810,80.223885 31.214411,81.715561 
	C31.074308,83.026649 31.091375,84.672371 29.555517,85.040077 
	C28.142008,85.378502 27.115374,84.161247 26.301996,83.105865 
	C24.164921,80.332977 22.235575,77.406563 20.440191,74.407669 
	C17.442554,69.400612 13.956950,64.708092 10.966570,59.710423 
	C8.803081,56.094707 6.104782,53.895683 1.370301,54.119652 
z"/>
<path fill="#232323" opacity="1.000000" stroke="none" 
	d="
M1.000000,54.250000 
	C4.855177,52.476402 7.807240,52.325481 10.474472,56.732098 
	C16.284372,66.330818 22.768463,75.521454 29.013021,84.933113 
	C30.765814,83.806229 29.993509,82.346779 29.998339,81.196617 
	C30.062685,65.869019 30.190647,50.538662 29.945484,35.214706 
	C29.876856,30.925028 31.302505,29.390312 35.389038,29.981794 
	C36.041790,30.076273 36.719978,29.995043 37.386406,29.995016 
	C51.853317,29.994413 51.764324,30.051489 59.621433,42.301960 
	C77.549896,70.255280 95.546158,98.165253 113.570084,126.057152 
	C124.970299,143.698883 136.561935,161.217850 147.834961,178.939926 
	C149.725815,181.912476 151.575058,183.197968 155.126328,183.078995 
	C163.114517,182.811356 171.133682,183.295853 179.108688,182.875732 
	C183.488403,182.645020 184.735641,184.137985 184.002258,188.550446 
	C171.645767,189.000000 159.291550,189.000000 146.468658,189.000000 
	C136.778259,174.611969 127.585289,160.205399 118.329063,145.839569 
	C95.565315,110.509895 72.769714,75.200737 49.997440,39.876553 
	C48.458267,37.488995 40.404236,35.591934 37.853951,37.039532 
	C36.721146,37.682541 37.018444,38.732975 37.017635,39.668083 
	C37.001537,58.327866 36.860306,76.989540 37.100365,95.646248 
	C37.166389,100.777489 41.423180,104.299339 43.999516,108.341896 
	C54.680717,125.101883 65.730766,141.626511 76.552742,158.297714 
	C77.284225,159.424545 78.692619,160.764099 77.789757,162.329758 
	C76.988297,163.719589 75.377373,162.964386 74.158066,162.969696 
	C61.163097,163.026382 48.163471,162.814850 35.174946,163.109604 
	C30.720043,163.210709 29.932436,161.496811 29.968607,157.562653 
	C30.134029,139.570801 29.948483,121.575661 30.124523,103.584007 
	C30.157072,100.257446 29.223553,97.608978 27.476547,94.936775 
	C18.833633,81.716637 10.274829,68.441505 1.343185,55.092884 
	C1.000000,55.000000 1.000000,54.500000 1.000000,54.250000 
z"/>
<path fill="#232323" opacity="1.000000" stroke="none" 
	d="
M213.000000,139.625000 
	C208.363770,140.601669 205.306259,139.378937 202.766357,134.710144 
	C198.264084,126.434105 192.630051,118.772591 187.440063,110.873337 
	C186.805313,109.907219 186.822220,107.846626 184.995819,108.538765 
	C183.511002,109.101463 184.016312,110.836357 184.014969,112.119659 
	C183.998856,127.451363 183.896301,142.784409 184.083496,158.113846 
	C184.128204,161.774948 183.312210,162.622818 179.387177,163.232254 
	C167.170868,165.129044 160.409805,159.989716 153.976562,149.720749 
	C127.691505,107.763718 100.419022,66.425285 73.511993,24.857868 
	C70.505997,20.214048 67.254936,15.702577 64.615868,10.858245 
	C63.225723,8.306470 61.558029,7.929965 59.062870,7.964007 
	C51.065201,8.073122 43.065056,8.021783 35.065968,7.998489 
	C29.685019,7.982820 29.326870,7.434363 30.896952,1.384805 
	C42.354229,1.000000 53.708454,1.000000 65.531342,0.999999 
	C76.243721,16.488804 86.606461,31.900528 96.699936,47.486633 
	C108.367111,65.502800 119.720093,83.722214 131.352081,101.761444 
	C142.650238,119.282944 154.123077,136.691879 165.535187,154.139786 
	C167.139648,156.592834 174.673706,158.182968 176.938507,156.612686 
	C178.280823,155.682022 177.987961,154.272598 177.988678,152.971680 
	C177.998474,134.976196 177.966278,116.980629 178.023895,98.985336 
	C178.033539,95.972420 176.442093,93.759850 174.937531,91.445862 
	C162.509857,72.332138 150.088486,53.214306 137.637039,34.116089 
	C135.897369,31.447763 135.938232,30.052504 139.695297,30.075796 
	C153.191391,30.159470 166.689163,30.191654 180.184372,30.053692 
	C183.896164,30.015747 184.052292,32.022217 184.038544,34.830414 
	C183.966003,49.659668 184.629822,64.525017 183.789383,79.306839 
	C183.208450,89.524376 186.470413,97.683029 192.079224,105.734505 
	C199.143082,115.874672 205.599564,126.437935 212.659058,136.909332 
	C213.000000,137.750000 213.000000,138.500000 213.000000,139.625000 
z"/>
<path fill="#FFFFFF" opacity="1.000000" stroke="none" 
	d="
M37.004978,128.003174 
	C37.004978,122.204361 37.004978,116.904739 37.004978,111.605125 
	C37.286808,111.447197 37.568634,111.289276 37.850464,111.131348 
	C47.466236,125.857758 57.082005,140.584152 67.143440,155.993088 
	C57.496887,155.993088 48.478729,155.911774 39.463726,156.044647 
	C36.895710,156.082504 36.980648,154.702332 36.988831,152.925812 
	C37.026329,144.784805 37.005112,136.643555 37.004978,128.003174 
z"/>
<path fill="#FFFFFF" opacity="1.000000" stroke="none" 
	d="
M177.995468,56.001389 
	C177.995468,64.911072 177.995468,73.321159 177.995468,82.671524 
	C173.971130,79.198067 172.503098,75.091576 170.187653,71.640106 
	C163.349731,61.447338 156.753464,51.092510 149.920822,40.896126 
	C148.205963,38.337021 147.495056,36.920845 151.599808,36.975643 
	C159.238525,37.077618 166.880173,37.060081 174.519302,36.975491 
	C177.111877,36.946785 178.070892,38.029213 178.022614,40.554394 
	C177.927383,45.535213 177.995132,50.519154 177.995468,56.001389 
z"/>
</svg>